/* XPM */
static const char *icon_64[] = {
/* columns rows colors chars-per-pixel */
"64 64 225 2 ",
"   c #1F0D35",
".  c #200E36",
"X  c #230F3B",
"o  c #25113C",
"O  c #28163E",
"+  c #2C1544",
"@  c #2E1C45",
"#  c #2A1343",
"$  c #331B4C",
"%  c #301A47",
"&  c #381D52",
"*  c #35234B",
"=  c #3B2354",
"-  c #3E2855",
";  c #432B5B",
":  c #41255B",
">  c #47335C",
",  c #4A2D65",
"<  c #492A65",
"1  c #4C3363",
"2  c #4D3467",
"3  c #51356D",
"4  c #543B6B",
"5  c #513A67",
"6  c #543472",
"7  c #563A71",
"8  c #593C74",
"9  c #5D3C7B",
"0  c #583576",
"q  c #502E6D",
"w  c #603E7E",
"e  c #58446C",
"r  c #5C4473",
"t  c #5E437A",
"y  c #5E4D71",
"u  c #5F516F",
"i  c #614D75",
"p  c #62437D",
"a  c #654B7C",
"s  c #694F7F",
"d  c #65517A",
"f  c #6A547D",
"g  c #6A5B7C",
"h  c #645375",
"j  c #6D607D",
"k  c #623F80",
"l  c #644381",
"z  c #664A82",
"x  c #694C83",
"c  c #6C4E89",
"v  c #6C5383",
"b  c #6E5B82",
"n  c #6D538B",
"m  c #715786",
"M  c #725C86",
"N  c #71528E",
"B  c #745C8B",
"V  c #755592",
"C  c #785694",
"Z  c #755C93",
"A  c #795B94",
"S  c #7C559D",
"D  c #7D5A9C",
"F  c #76628A",
"G  c #7A648C",
"H  c #7C6A8D",
"J  c #746684",
"K  c #7B6394",
"L  c #7E6A92",
"P  c #7C6499",
"I  c #7F7091",
"U  c #7F57A3",
"Y  c #805D9E",
"T  c #816D93",
"R  c #846C9C",
"E  c #83659D",
"W  c #847395",
"Q  c #86739B",
"!  c #88759A",
"~  c #8C7C9B",
"^  c #857894",
"/  c #825CA3",
"(  c #865FA9",
")  c #8563A4",
"_  c #8966A7",
"`  c #866BA2",
"'  c #896CA4",
"]  c #8965AA",
"[  c #8D6AAB",
"{  c #8761A9",
"}  c #916EAE",
"|  c #8B74A4",
" . c #8D76A7",
".. c #9273AD",
"X. c #947BAC",
"o. c #927CA7",
"O. c #8F69B2",
"+. c #8C66B0",
"@. c #916BB5",
"#. c #946EB9",
"$. c #9574B3",
"%. c #9876B7",
"&. c #997BB5",
"*. c #9671BA",
"=. c #9975BC",
"-. c #9D7CBB",
";. c #977AB1",
":. c #A07FBF",
">. c #9E7BC1",
",. c #9C76C4",
"<. c #A27DC4",
"1. c #92899E",
"2. c #8F839D",
"3. c #9383A3",
"4. c #9583AB",
"5. c #9982AF",
"6. c #9B8CAB",
"7. c #978BA4",
"8. c #9E90AC",
"9. c #9D96A7",
"0. c #9C82B3",
"q. c #9E8CB3",
"w. c #9E82B9",
"e. c #9885B3",
"r. c #9F90B0",
"t. c #A196AE",
"y. c #A18EB6",
"u. c #A283BC",
"i. c #A58BBC",
"p. c #A58BBB",
"a. c #A293B3",
"s. c #A99DB5",
"d. c #A593BC",
"f. c #A994BE",
"g. c #AB9DBB",
"h. c #A599B2",
"j. c #ADA1BC",
"k. c #ACA5B4",
"l. c #B2A8BD",
"z. c #A585C2",
"x. c #A68AC2",
"c. c #AA8CC3",
"v. c #AC8DCA",
"b. c #A784CA",
"n. c #AD94C4",
"m. c #AD9BC3",
"M. c #AE92CA",
"N. c #AF98C8",
"B. c #B19BC6",
"V. c #B195CB",
"C. c #B49ACB",
"Z. c #B398C9",
"A. c #AE8BD2",
"S. c #B99ED2",
"D. c #B698D5",
"F. c #AEA0C3",
"G. c #B3A3C4",
"H. c #B6ACC3",
"J. c #B8ADC4",
"K. c #B5A4C9",
"L. c #B9A3CD",
"P. c #B6A9CA",
"I. c #BBABCC",
"U. c #BCB4C4",
"Y. c #BDB2CC",
"T. c #BFBAC6",
"R. c #BCA4D2",
"E. c #BEAAD2",
"W. c #BEA3DB",
"Q. c #BEB1D1",
"!. c #C1B5CE",
"~. c #C4BBCD",
"^. c #C1ACD4",
"/. c #C4ACDB",
"(. c #C0A5DD",
"). c #C4B3D4",
"_. c #C5BBD3",
"`. c #C9BCD5",
"'. c #C6B2DA",
"]. c #C9B5DB",
"[. c #CCBCDB",
"{. c #C8B7D7",
"}. c #D0BFDD",
"|. c #CAB4E1",
" X c #CEBAE2",
".X c #D1BEE3",
"XX c #C6ADE0",
"oX c #C7C1CD",
"OX c #C9C2CF",
"+X c #CBC2D5",
"@X c #CFC8D6",
"#X c #CDC3DA",
"$X c #C7C0D0",
"%X c #D1C5DD",
"&X c #D3CBDC",
"*X c #D1CAD7",
"=X c #DAD6DE",
"-X c #D6D2DB",
";X c #D4C3E3",
":X c #D6CBE2",
">X c #D9CDE4",
",X c #DBCCE9",
"<X c #D8C7E7",
"1X c #DCD3E5",
"2X c #DEDAE3",
"3X c #DFD3EA",
"4X c #DFD9E8",
"5X c #E1DCE6",
"6X c #E1D5EB",
"7X c #E4DBEC",
"8X c #E8DFEF",
"9X c #E7DDF1",
"0X c #E3E1E6",
"qX c #E7E5EA",
"wX c #E6E2EB",
"eX c #E9E4ED",
"rX c #EBE9EF",
"tX c #EBE4F1",
"yX c #EEE9F3",
"uX c #F1EDF5",
"iX c #F3EFF8",
"pX c #F3F1F4",
"aX c white",
"sX c #FFFFFF",
"dX c #F7F5F9",
/* pixels */
"aXaXaXaXaXaXaXaXaXaXaXaXaXaXaXaXaXaXaXaXaXaXaXaXaXaX$Xt.7.g i i i i y 7.1.oX0XaXaXaXaXaXaXaXaXaXaXaXaXaXaXaXaXaXaXaXaXaXaXaXaXaX",
"aXaXaXaXaXaXaXaXaXaXaXaXaXaXaXaXaXaXaXaXaXaX-X~ d 1 3 3 3 2 1 1 1 > ; : = $ + > J k.pXaXaXaXaXaXaXaXaXaXaXaXaXaXaXaXaXaXaXaXaXaX",
"aXaXaXaXaXaXaXaXaXaXaXaXaXaXaXaXaXaXaX0X~ d a B B B F K T ! ~ ^ W T F M f r 5 ; = $ # g U.aXaXaXaXaXaXaXaXaXaXaXaXaXaXaXaXaXaXaX",
"aXaXaXaXaXaXaXaXaXaXaXaXaXaXaXaXaX0X^ d Q Q | o.4.a.j.Y.$X*X&X-X&X@XoXT.j.8.^ F i 5 ; $ # - k.aXaXaXaXaXaXaXaXaXaXaXaXaXaXaXaXaX",
"aXaXaXaXaXaXaXaXaXaXaXaXaXaXaXpX^ g 4.4.6.q.g.J.+X2XwXrXrXrXrXrXrXqXqXqXqX0X-X~.t.W f 5 : $ o - oXaXaXaXaXaXaXaXaXaXaXaXaXaXaXaX",
"aXaXaXaXaXaXaXaXaXaXaXaXaXaXh.g 6.r.a.m.G.Y.&XwXrXrXrXqXqXqXqXqXqXqXqXqXqXqXqXqX5X~.6.H i > = + . h pXaXaXaXaXaXaXaXaXaXaXaXaXaX",
"aXaXaXaXaXaXaXaXaXaXaXaXpXH ^ s.g.F.K.I._.2XrXrXwX5X2X2X2X2X2X2X2X2X2X2X2X0XwXqXqXqX+Xh.W d 1 = + X @ oXaXaXaXaXaXaXaXaXaXaXaXaX",
"aXaXaXaXaXaXaXaXaXaXaX=Xg s.j.G.K.I.I.).&X2X5X=X&X&X&X&X&X*X@X@X@X&X&X&X*X&X-X=X2X0X=XT.8.H i 2 = + X . 9.aXaXaXaXaXaXaXaXaXaXaX",
"aXaXaXaXaXaXaXaXaXaX=Xb J.H.P.P.I.I.I.!._.+X$X_.~.~.~.~.~.~.~.~.~.~.~.~.~.~.~.oX$X+X+XT.s.~ F r > = + . . J aXaXaXaXaXaXaXaXaXaX",
"aXaXaXaXaXaXaXaXaX=XH Y.Y.I.I.I.P.G.G.P.I.I.J.H.J.J.J.J.J.J.J.J.J.J.J.J.J.H.H.H.J.J.J.l.h.3.H f 4 ; $ # . . J aXaXaXaXaXaXaXaXaX",
"aXaXaXaXaXaXaXaX=XH ~._.Y.Y.I.K.m.d.g.g.g.g.g.g.g.g.g.g.g.g.g.g.g.g.g.j.j.j.s.s.s.s.h.h.6.~ H f e 1 = + X   . J aXaXaXaXaXaXaXaX",
"aXaXaXaXaXaXaX=Xb ~._.!.Y.I.K.m.y.q.q.q.q.q.6.6.8.a.a.a.a.a.a.a.a.a.a.a.a.a.8.6.6.6.7.7.2.W F f r 1 - $ # .   . 9.aXaXaXaXaXaXaX",
"aXaXaXaXaXaXpXJ Y.+X_._.Y.K.m.y.4.4.4.o.o.3.o.3.4.4.4.4.3.3.3.3.3.3.3.3.3.3.3.~ ~ ~ ^ ^ W H M d r 2 ; $ + X   . . U.aXaXaXaXaXaX",
"aXaXaXaXaXaXW j.@X_.`.Y.P.m.d.o. .| | Q Q | Q Q W W W W W ! ! ! ! ! ! ! ! W W W W W T H F M f i e 1 ; $ + o       @ 0XaXaXaXaXaX",
"aXaXaXaXaXoX! &X_.`._.I.G.f.e.| R P K K K K F F G H H L L T T T T T T T T L L H H G J M b f i r 5 > - $ + o .     . e aXaXaXaXaX",
"aXaXaXaXpXb @X+X_.+XY.G.f.q.| R K Z v v v M M M M F F G G G G G G G G G G G F F B M M v f i r 4 2 ; - $ + # .       . k.aXaXaXaX",
"aXaXaXaXh.g.&X_.+X_.P.m.y.X.P Z n t t a s v v v v M M M B B B B B B B B B M M M v v v s a t r 5 1 ; = $ + X .         @ pXaXaXaX",
"aXaXaXrXL 1X+X+X`.Y.F.d.e.` Z t 7 7 r t a z v s s v v v v m m m m m m m v v v v v s a a t r 4 3 , : = $ + # .         . 1.aXaXaX",
"aXaXaXh.H.:X`.#X_.P.f.q.X.B 7 3 7 7 8 r p a z a a s x x v v v v v v v v v x x x a a p r 8 7 3 2 , : = & % # o .       . @ pXaXaX",
"aXaXpXQ 1X#X@X`.Y.F.y.e.P 3 3 3 3 7 7 8 t p l l p p a z x x x x x x x x x z a p p p t 8 7 3 3 , < : = & % + o o o .     . k.aXaX",
"aXaX_.G.1X+X#X_.P.f.e.P z 3 3 3 3 6 7 8 9 9 p l p p p p l l z z x l l l l l p p p 9 8 8 7 3 q , < : = & $ + + + o o .   . - aXaX",
"aXaX6.&X&X%X+XQ.G.d.P z t 3 3 3 3 6 7 0 8 9 w l p 9 p p p l l l l l l l l p p p 9 9 8 8 7 3 q < < : = & $ $ @ + + o o o . o -XaX",
"aXwXg.4X#X&X`.I.m.| n z t 3 3 3 3 6 6 6 0 9 9 k l 9 w w p l l l l l l l l p w w 9 9 8 6 6 3 q < < < : & & $ $ $ + + + o o o ^ aX",
"aX&XY.1X@X#X_.P.e.Z n z t 3 6 6 6 6 6 6 8 9 k k l l w w k l l l l l l l l k w w 9 9 8 0 0 6 q q < < : = = & & $ $ % + + O o 5 aX",
"aXH.@X&X#X#X).m. .R K Z n s z z z z x c N N V V C C V V V V C C C C C C V V V V N N N c c z x p p 8 8 4 3 3 2 1 1 ; - = * @ O pX",
"aXg.1X&X:X%X_.g.y.5.4.o. .Q Q Q |  . .o.X.X.5.5.0.0.0.5.5.0.0.0.0.0.0.0.0.5.5.5.X.X.X.X.o. . .! R R T L G F M M b d i e 1 - @ U.",
"wX!.7X1XwX7X&X&X@X+X+X+X+X+X+X@X&X&X2XeXeXrXrXrXrXrXrXrXrXrX8X5X5X5X5X5X1X5X8XeXwX1X&X&X&X%X+X+X`._.~.Y.U.J.H.l.j.s.8.2.H y ; 1.",
"wX_.1X#X:X).m.d.q.5.o. . .R R R R R | |  .....X.X.X.X.;.X...X.X.X.X.X...y.B.B.G.G.G.f. .| | R R R R K K G B M b v d i r 5 ; * j ",
"+X`.1X+X`.m.y.0...` P P A N N N N N V V V C C D D D D Y / D D D D D D Y 0.w.0.0.0.0.0.` V N N n c x z z p p p t 8 4 3 1 ; - $ u ",
"&X#X:X#X_.K.m.d.w.X. .| | ` R R R ` ' ' |  . ...........$.$...........&.p.p.p.p.d.d.d.y.' ' ' R R E P K Z B A Z B v s t 4 1 - * ",
"&X&X1X1X:X&X%X#X`.`._._._._._.`.+X#X%X&X&X:X:X:X>X>X>X>X>X>X>X>X:X&X&X:X1X1X>X>X>X>X>X&X+X`.`._._.!.!.I.J.P.J.K.G.g.h.6.W b e * ",
"J.&X1X#X#X`.).Q.I.K.G.G.G.G.B.G.G.K.P.P.I.I.I.E.^.^.^.^.^.).).^.I.I.I.I.).).).).).).).I.P.G.G.G.B.g.g.f.d.y.a.y.q.5.o.| R v 5 * ",
"U.%X%XI.I.K.m.i.0... .' ` ' E E E ) ) ) ' [ [ [ [ [ } } } ......} [ [ [ [ ..........[ ' _ ) ) ) E D D C V N C C V N c x n B 1 @ ",
"&X%X`.K.I.K.n.i.&.$.} ` ` ) ) D Y ) ) ) _ _ [ [ [ [ [ [ } } } } } [ [ [ [ [ [ [ [ [ _ _ ) ) ) / Y D D C V N C C V n c n Z P v @ ",
"&X&X+XY.`.).I.K.B.n.n.i.i.i.f.p.p.f.n.n.n.n.B.B.B.B.Z.Z.B.C.C.C.C.B.B.B.B.B.B.B.B.N.n.n.n.n.n.d.p.i.y.0.5.X.X.X.X...| 0.w.o. .- ",
"$X&X&X@X4X5X5X5X4X4X4X6X5X7X8XwXeXtXtXyXyXyXyXuXuXuXuXuXuXuXuXuXuXuXuXyXyXyXyXyXtXtXtXtXtXeXeX8X8X5X5X1X1X1X>X:X%X#X;X;X).g.a.g ",
"5X@X#XP._.).I.K.B.n.c.c.i.i.i.i.i.i.i.c.n.n.n.n.n.n.n.n.N.B.B.B.B.B.B.n.n.n.n.n.n.n.n.n.d.d.i.p.u.u.w.&.;.X.;.w.x.v.M.M.n.q.q.J ",
"eX~.@XG.I.K.N.x.w.&.$.$.[ [ [ [ [ _ _ [ [ [ @.$.$.$.$.$.$.$.$.$.$.$.$.$...........$.$.[ [ [ _ _ ) ) / Y D S { ,.,.>.z.v.x.q.3.7.",
"aXG.%XP.P.I.K.n.x.w.-.-.-.$.$.$.%.&.$.$.&.&.-.-.w.w.u.u.u.u.u.u.u.u.u.u.w.w.w.w.w.u.u.&.&.;.$.....[ [ _ ) ) @.b.b.b.v.D.N.f.I T.",
"aXY.:X_.).#X[.`.{.'.).'.'.'.).{.{.[.%X%X%X%X;X:X:X>X1X1X1X1X1X1X1X1X1X1X>X&X%X%X%X%X%X[.`.`.).).^.I.L.K.B.B.R./././.'.|.^.P.g pX",
"aX&X&X+XI.{.{.).).E.R.R.R.R.R.R.E.^.^.).).).).{.{.{.[.[.:X5X6X4X>X#X#X[.[.`.).).{.{.).).^.I.I.P.K.B.B.m.n.n.S./././.]. X).I.j aX",
"aXuX!.+XB.B.L.Z.c.z.-.-.-.-.-.$.%.-.-.-.u.u.w.u.u.i.i.i.I.>X>X:X).c.c.c.c.i.i.i.x.i.i.u.&.&.$.$...} [ [ _ [ <.b.A.D.W.].I.t.2.aX",
"aXaXY.#XK.n.C.n.z.-.*.@.@.@.@.+.] +.O.@.$.$.%.$.$.&.-.-.w.;XtX>Xc.u.u.u.u.-.&.-.-.-.%.$.[ _ ) ) / / D S S U ,.b.A.S./. XI.J =XaX",
"aXaX&X#XE.n.n.N.x.-.*.@.@.@.O.@.+.+.@.#.$.%.-.-.-.-.-.u.u.u.u.z.z.z.z.z.i.u.-.u.:.-.-.-.} [ _ ) / / U S S / <.A.D./. X[.J.g aXaX",
"aXaXdXG.`.n.x.N.x.>.*.@.@.@.@.@.#.@.#.%.-.-.:.z.z.c.z.z.x.c.c.c.c.c.c.c.c.x.x.x.z.u.u.-.$.} [ _ ) / / S / +.A.D.W.|.;X`.~ l.aXaX",
"aXaXaX).+XK.x.x.c.z.=.#.@.@.@.#.*.%.%.-.-.z.z.c.c.v.M.M.n.n.n.n.n.n.n.n.n.V.C.C.V.v.x.z.-.$.} [ ) ) / / ( =.D.W.|.;X,X).y pXaXaX",
"aXaXaXuXK.).x.u.x.z.=.#.#.#.#.#.=.>.>.-.z.z.c.v.M.V.V.C.C.C.C.C.C.C.C.C.L.[.{.).^.^.R.M.x.&.$.[ _ ) ( ( ] b.D./..X,X:X3.t.aXaXaX",
"aXaXaXaX`.).B.z.-.z.>.*.#.#.#.*.-.<.z.b.b.c.v.V.V.C.C.S.R.R.R.R.L.L.L.R.;X>X<X;X;X;X;XR.n.-.&.$.[ _ ) ] #.D./. X,X6X).g pXaXaXaX",
"aXaXaXaXdXm.).i.-.-.>.*.#.#.*.=.>.z.b.v.M.M.V.C.S.S.R.R.W.^.^.^.^.^.^.^.7X8X8X7X7X6X6X].Z.u.-.$.} [ _ O.z.(.|.;X6X>XW oXaXaXaXaX",
"aXaXaXaXaX7Xd.n.-.=.=.=.#.#.*.-.<.b.v.M.D.C.C.S.R.W.^.^././.'.'.'.].].].6XuXuXuXuXyXtX[.C.i.u.&.$.[ @.$.D.|..X3X7XG.H aXaXaXaXaX",
"aXaXaXaXaXaX`.y.) ] O.*.#.#.*.-.<.z.c.v.V.S.R.W.^.^./.'.'.].]. X X.X.X;X;XyXsXdXdXdX,X;XZ.c.u.-.$.$.$.z.XX.X,X7X%XJ pXaXaXaXaXaX",
"aXaXaXaXaXaXdXQ.i.S U / ] O.#.%.-.z.c.V.C.R././.].].].[. X.X.X;X;X<X<X,X,X>X3X7X7X>X>X;XN.n.i.u.&.%.-.S. X,X6X4X^ &XaXaXaXaXaXaX",
"aXaXaXaXaXaXaXuXI.w.S / { ] O.%.-.b.v.V.S.R./.].].[..X.X;X;X<X,X,X,X,X3X3X6X3X3X6X6X6X{.C.N.c.u.-.-.x.|.;X6X6Xa.H.aXaXaXaXaXaXaX",
"aXaXaXaXaXaXaXaXpX).i.S ( _ [ $.-.z.v.C.R.^./.]. X.X;X;X<X,X,X,X6X6X6X7X7X7X8X7X8X8X3XE.L.B.c.z.u.u./.;X3X6XG.8.aXaXaXaXaXaXaXaX",
"aXaXaXaXaXaXaXaXaXpX_.n./ { [ @.-.u.c.V.S.^.'.{.[.;X<X,X,X3X6X6X9X9X8X8XtXtXtXtXtX8X{.^.L.Z.n.x.u.S..X,X6XK.t.aXaXaXaXaXaXaXaXaX",
"aXaXaXaXaXaXaXaXaXaXdX#XL.) _ @.%.u.c.V.R.^.{.[.;X;X,X6X6X9X9X8XtXyXyXyXyXyXuXyXtX;X{.).R.C.M.x.M. X,X,Xj.t.aXaXaXaXaXaXaXaXaXaX",
"aXaXaXaXaXaXaXaXaXaXaXdX:X`..._ @.-.z.M.S.^.{.;X:X>X,X3X7XtXtXyXyXuXiXiXuXuXuX8X<X;X[.).R.C.c.M.|.<X;Xa.$XaXaXaXaXaXaXaXaXaXaXaX",
"aXaXaXaXaXaXaXaXaXaXaXaXsX5X:Xn.[ ..-.c.C.R.'.;X>X3X6X6X5X7XtXyXuXiXiXiXuXtX6X3X1X:X}.).R.V.M.|.;X'.a.5XaXaXaXaXaXaXaXaXaXaXaXaX",
"aXaXaXaXaXaXaXaXaXaXaXaXaXaXyX1X{.&.$.-.x.C.E.{.:X6X8X8X8X8X8X8X8X8X8X8X8X8X8X8X5X:X[.E.Z.C.|.].G.l.dXaXaXaXaXaXaXaXaXaXaXaXaXaX",
"aXaXaXaXaXaXaXaXaXaXaXaXaXaXaXaXrX4XE.&.-.c.Z.R.{.:X5XeXeXeXeXtXtXtXtXtXeXeXeX8X>X[.E.Z.R./.I.g.2XaXaXaXaXaXaXaXaXaXaXaXaXaXaXaX",
"aXaXaXaXaXaXaXaXaXaXaXaXaXaXaXaXaXdXtX4X).i.i.n.L.^.[.>X5X8XeXtXtXtXtXtXeX8X1X%X'.R.C.W.L.g.+XaXaXaXaXaXaXaXaXaXaXaXaXaXaXaXaXaX",
"aXaXaXaXaXaXaXaXaXaXaXaXaXaXaXaXaXaXaXdXtX7X:X^.n.V.L.^.{.[.;X:X>X>X>X:X%X{.^.R.C.L.g.~.2XaXaXaXaXaXaXaXaXaXaXaXaXaXaXaXaXaXaXaX",
"aXaXaXaXaXaXaXaXaXaXaXaXaXaXaXaXaXaXaXaXaXaXuX7X4X#X#X{.^.E.R.E.^.^.E.^.^.E.B.K._.&XdXaXaXaXaXaXaXaXaXaXaXaXaXaXaXaXaXaXaXaXaXaX",
"aXaXaXaXaXaXaXaXaXaXaXaXaXaXaXaXaXaXaXaXaXaXaXaXaXaXwX1X5X1X%X#X@X`._.:X+X7XuXaXaXaXaXaXaXaXaXaXaXaXaXaXaXaXaXaXaXaXaXaXaXaXaXaX"
};
