#define icon-64_width 64
#define icon-64_height 64
static char icon-64_bits[] = {
  0x00, 0x00, 0x00, 0xF0, 0x3F, 0x00, 0x00, 0x00, 0x00, 0x00, 0x80, 0xFF, 
  0xFF, 0x03, 0x00, 0x00, 0x00, 0x00, 0xE0, 0x5F, 0xFF, 0x0F, 0x00, 0x00, 
  0x00, 0x00, 0xB8, 0x05, 0xE1, 0x3F, 0x00, 0x00, 0x00, 0x00, 0x2B, 0x00, 
  0x00, 0xFE, 0x00, 0x00, 0x00, 0x80, 0x05, 0x00, 0x00, 0xF8, 0x03, 0x00, 
  0x00, 0xA0, 0x0A, 0x00, 0x00, 0xF8, 0x0F, 0x00, 0x00, 0x30, 0x01, 0x00, 
  0x00, 0xF0, 0x0F, 0x00, 0x00, 0x48, 0x94, 0x00, 0x00, 0xF8, 0x3F, 0x00, 
  0x00, 0x0C, 0x02, 0x45, 0x94, 0xA0, 0x7F, 0x00, 0x00, 0x40, 0x58, 0x54, 
  0x81, 0xD5, 0xFF, 0x00, 0x00, 0x51, 0xA5, 0xAB, 0x5A, 0xFA, 0xFF, 0x00, 
  0x80, 0x80, 0x7E, 0x2C, 0xAF, 0xFB, 0xFF, 0x01, 0x00, 0xA8, 0xC5, 0xF7, 
  0xE9, 0xEE, 0xFF, 0x03, 0x40, 0xE1, 0xFF, 0xFE, 0x7B, 0xFF, 0xFF, 0x07, 
  0x20, 0x50, 0xFF, 0xFF, 0xFF, 0xFF, 0xFF, 0x07, 0x00, 0xD4, 0xFF, 0xFF, 
  0xFF, 0xFF, 0xFF, 0x0F, 0x10, 0xF8, 0xFF, 0xFF, 0xFF, 0xFF, 0xFF, 0x1F, 
  0x10, 0xE2, 0xFF, 0xFF, 0xFF, 0xFF, 0xFF, 0x1F, 0x00, 0xFC, 0xFF, 0xFF, 
  0xFF, 0xFF, 0xFF, 0x1F, 0x00, 0xFC, 0xFF, 0xFF, 0xFF, 0xFF, 0xFF, 0x3F, 
  0x04, 0xFD, 0xFF, 0xFF, 0xFF, 0xFF, 0xFF, 0x3F, 0x04, 0xFF, 0xFF, 0xFF, 
  0xFF, 0xFF, 0xFF, 0x7F, 0x80, 0xFF, 0xFF, 0xFF, 0xFF, 0xFF, 0xFF, 0x7F, 
  0x80, 0xFF, 0xFF, 0xFF, 0xFF, 0xFF, 0xFF, 0x7F, 0x40, 0xF6, 0x9F, 0x99, 
  0x97, 0xBB, 0xFF, 0xFF, 0x00, 0x00, 0x00, 0x00, 0x00, 0x00, 0x90, 0xFF, 
  0x00, 0xE6, 0x3D, 0x5A, 0x2B, 0xE8, 0xFF, 0xFF, 0xC0, 0xFF, 0xFF, 0xFF, 
  0xBF, 0xFD, 0xFF, 0xFF, 0xA0, 0xFD, 0xEF, 0xDE, 0x6B, 0xFA, 0xFF, 0xFF, 
  0x00, 0x04, 0x00, 0x00, 0x00, 0x00, 0x01, 0xF7, 0x00, 0x40, 0x44, 0x04, 
  0x04, 0x42, 0xD8, 0xFE, 0x10, 0xF7, 0xFF, 0xAB, 0xAF, 0xED, 0xFE, 0xFF, 
  0xC8, 0xEC, 0xDE, 0xFE, 0xFD, 0xFF, 0xFF, 0xFF, 0x80, 0x1A, 0x01, 0x22, 
  0x00, 0x44, 0x58, 0xEB, 0x00, 0x00, 0x00, 0x00, 0x00, 0x00, 0x00, 0xE0, 
  0x08, 0xD8, 0xC4, 0xC2, 0x45, 0x64, 0xB5, 0xD1, 0x50, 0x5F, 0x7F, 0x7D, 
  0xFD, 0xDF, 0xFF, 0x6F, 0x90, 0xFA, 0xE7, 0x16, 0xA6, 0xDD, 0xFF, 0x56, 
  0x02, 0x00, 0x00, 0x00, 0x00, 0x00, 0x00, 0x40, 0x00, 0x02, 0x00, 0x00, 
  0x00, 0x00, 0x40, 0x40, 0xA0, 0xFC, 0xDF, 0x0E, 0x58, 0xFB, 0x7F, 0x26, 
  0xA0, 0xFF, 0xF5, 0x05, 0x6E, 0xDD, 0xBF, 0x23, 0x40, 0x5A, 0x5F, 0xBD, 
  0xD5, 0xBB, 0xFF, 0x20, 0x40, 0xA5, 0x6F, 0x5E, 0x96, 0xEE, 0x3F, 0x11, 
  0xA0, 0xFE, 0x95, 0xA1, 0x69, 0xA9, 0x57, 0x10, 0x50, 0xBA, 0x5E, 0x16, 
  0x40, 0xB0, 0x7D, 0x00, 0x80, 0xDD, 0xA9, 0x52, 0x06, 0xE8, 0x1F, 0x08, 
  0x00, 0x7B, 0x4A, 0x13, 0x01, 0x60, 0x1F, 0x04, 0x80, 0xD5, 0x27, 0x84, 
  0x00, 0xC0, 0x16, 0x00, 0x00, 0x5F, 0xB9, 0x02, 0x00, 0x90, 0x06, 0x02, 
  0x00, 0xFE, 0x06, 0x00, 0x00, 0x60, 0x07, 0x01, 0x00, 0xFE, 0x5D, 0x00, 
  0x00, 0xC0, 0x05, 0x00, 0x00, 0x5C, 0x01, 0x01, 0x00, 0x50, 0x02, 0x00, 
  0x00, 0xF0, 0x16, 0x00, 0x00, 0xA0, 0x43, 0x00, 0x00, 0xA0, 0x4B, 0x00, 
  0x00, 0x40, 0x00, 0x00, 0x00, 0x80, 0x0A, 0x00, 0x00, 0xA0, 0x00, 0x00, 
  0x00, 0x00, 0x17, 0x00, 0x00, 0x50, 0x00, 0x00, 0x00, 0x00, 0x16, 0x00, 
  0x00, 0x20, 0x01, 0x00, 0x00, 0x00, 0x60, 0x00, 0x00, 0x84, 0x00, 0x00, 
  0x00, 0x00, 0x20, 0x00, 0x00, 0x0C, 0x00, 0x00, 0x00, 0x00, 0x00, 0x08, 
  0x00, 0x00, 0x00, 0x00, 0x00, 0x00, 0x00, 0x20, 0x08, 0x00, 0x00, 0x00, 
  0x00, 0x00, 0x00, 0x00, 0x00, 0x00, 0x00, 0x00, };
