#define icon-64_width 64
#define icon-64_height 64
static char icon-64_bits[] = {
  0x00, 0x00, 0x00, 0xF0, 0x1F, 0x00, 0x00, 0x00, 0x00, 0x00, 0x80, 0xFF, 
  0xFF, 0x01, 0x00, 0x00, 0x00, 0x00, 0xE0, 0xFF, 0xFF, 0x0F, 0x00, 0x00, 
  0x00, 0x00, 0xF8, 0x0A, 0xF4, 0x3F, 0x00, 0x00, 0x00, 0x00, 0x0E, 0x00, 
  0x80, 0xFF, 0x00, 0x00, 0x00, 0x80, 0x13, 0x00, 0x00, 0xFE, 0x03, 0x00, 
  0x00, 0x40, 0x04, 0x00, 0x00, 0xF8, 0x07, 0x00, 0x00, 0x50, 0x01, 0x00, 
  0x00, 0xF0, 0x0F, 0x00, 0x00, 0x08, 0x02, 0x00, 0x00, 0xF0, 0x3F, 0x00, 
  0x00, 0xA4, 0x94, 0x20, 0x89, 0xE8, 0x7F, 0x00, 0x00, 0x02, 0x25, 0x4B, 
  0x52, 0xF5, 0xFF, 0x00, 0x00, 0xA1, 0x5A, 0xB5, 0x55, 0xED, 0xFF, 0x00, 
  0x80, 0x90, 0xF6, 0x56, 0xEF, 0xFB, 0xFF, 0x03, 0x40, 0xA0, 0xAD, 0xFD, 
  0xBB, 0xFE, 0xFF, 0x03, 0x00, 0xA4, 0xFF, 0x6F, 0xFF, 0xFF, 0xFF, 0x07, 
  0x20, 0xD0, 0xFF, 0xFF, 0xEF, 0xFF, 0xFF, 0x07, 0x80, 0xD4, 0xFF, 0xFF, 
  0xFF, 0xFF, 0xFF, 0x0F, 0x10, 0xF2, 0xFF, 0xFF, 0xFF, 0xFF, 0xFF, 0x0F, 
  0x00, 0xEC, 0xFF, 0xFF, 0xFF, 0xFF, 0xFF, 0x1F, 0x08, 0xF9, 0xFF, 0xFF, 
  0xFF, 0xFF, 0xFF, 0x1F, 0x00, 0xFE, 0xFF, 0xFF, 0xFF, 0xFF, 0xFF, 0x3F, 
  0x84, 0xFC, 0xFF, 0xFF, 0xFF, 0xFF, 0xFF, 0x3F, 0x00, 0xFF, 0xFF, 0xFF, 
  0xFF, 0xFF, 0xFF, 0x7F, 0x00, 0xFE, 0xFF, 0xFF, 0xFF, 0xFF, 0xFF, 0x7F, 
  0x40, 0xFF, 0xFF, 0xFF, 0xFF, 0xFF, 0xFF, 0x7F, 0x00, 0xFD, 0xFF, 0xFF, 
  0xFF, 0xFF, 0xFF, 0x7F, 0x00, 0x40, 0x00, 0x00, 0x00, 0xA0, 0xFA, 0xFF, 
  0x80, 0xFE, 0xBF, 0x55, 0x15, 0xDC, 0xFF, 0xFF, 0x60, 0xFB, 0xFF, 0xFF, 
  0xDF, 0xFB, 0xFF, 0xFF, 0x00, 0xDD, 0x6E, 0x55, 0xAB, 0x74, 0xFF, 0xFF, 
  0x00, 0x00, 0x00, 0x00, 0x00, 0x00, 0x80, 0xFE, 0x80, 0x4A, 0x01, 0x00, 
  0x00, 0x80, 0x6A, 0xFD, 0xA8, 0xF6, 0xFF, 0xFF, 0xFF, 0xFF, 0xFF, 0xFF, 
  0x40, 0x7D, 0xDF, 0x6D, 0x6D, 0xFD, 0xFE, 0xFF, 0x08, 0x91, 0x10, 0x92, 
  0x84, 0x82, 0xAA, 0xFF, 0x00, 0x00, 0x00, 0x00, 0x00, 0x00, 0x00, 0xC0, 
  0x00, 0x25, 0x45, 0x00, 0x10, 0x28, 0x55, 0xB1, 0xA8, 0xFA, 0xBE, 0xFF, 
  0xEF, 0xEF, 0x7F, 0xCD, 0x40, 0xD5, 0x55, 0x95, 0x54, 0x59, 0x7D, 0x65, 
  0x08, 0x00, 0x00, 0x00, 0x00, 0x00, 0x00, 0x40, 0x00, 0x15, 0x00, 0x00, 
  0x00, 0xA0, 0xAA, 0x50, 0xA0, 0xEA, 0xFF, 0x0B, 0xD4, 0xBE, 0x7D, 0x25, 
  0x90, 0xBE, 0x55, 0x15, 0xB5, 0xD5, 0xAF, 0x20, 0xA0, 0xEA, 0xBF, 0x56, 
  0x55, 0xF5, 0xBE, 0x22, 0x40, 0x5D, 0x55, 0x55, 0x55, 0xED, 0x7F, 0x10, 
  0xA0, 0xF6, 0xAF, 0x4A, 0x2A, 0x55, 0x3B, 0x11, 0x80, 0x5A, 0x59, 0xA9, 
  0x08, 0xE8, 0x2F, 0x18, 0x40, 0xED, 0x56, 0x05, 0x05, 0x50, 0x5D, 0x08, 
  0x80, 0xBA, 0x55, 0x52, 0x00, 0xA0, 0x17, 0x04, 0x40, 0xD7, 0x2A, 0x09, 
  0x04, 0x50, 0x0D, 0x04, 0x00, 0xBB, 0x4A, 0x44, 0x00, 0xA0, 0x0B, 0x02, 
  0x00, 0xEE, 0x2B, 0x01, 0x00, 0x50, 0x05, 0x01, 0x00, 0xBE, 0x04, 0x00, 
  0x00, 0xA0, 0x82, 0x00, 0x00, 0xF8, 0x57, 0x01, 0x00, 0x48, 0x05, 0x00, 
  0x00, 0x50, 0x09, 0x00, 0x00, 0xA0, 0x22, 0x00, 0x00, 0xE0, 0x56, 0x00, 
  0x00, 0x40, 0x11, 0x00, 0x00, 0xC0, 0x05, 0x00, 0x00, 0x50, 0x08, 0x00, 
  0x00, 0x00, 0x5B, 0x00, 0x00, 0x40, 0x00, 0x00, 0x00, 0x00, 0x16, 0x00, 
  0x00, 0x28, 0x01, 0x00, 0x00, 0x00, 0xA8, 0x00, 0x00, 0x40, 0x00, 0x00, 
  0x00, 0x00, 0xA0, 0x00, 0x00, 0x14, 0x00, 0x00, 0x00, 0x00, 0x00, 0x02, 
  0x00, 0x02, 0x00, 0x00, 0x00, 0x00, 0x00, 0x00, 0x80, 0x00, 0x00, 0x00, 
  0x00, 0x00, 0x00, 0x00, 0x00, 0x00, 0x00, 0x00, };
