#define icon-64_width 64
#define icon-64_height 64
static char icon-64_bits[] = {
  0x00, 0x00, 0x00, 0xF0, 0x0F, 0x00, 0x00, 0x00, 0x00, 0x00, 0x00, 0xFF, 
  0xFF, 0x01, 0x00, 0x00, 0x00, 0x00, 0xE0, 0xFF, 0xFF, 0x0F, 0x00, 0x00, 
  0x00, 0x00, 0xF8, 0x05, 0xF0, 0x3F, 0x00, 0x00, 0x00, 0x00, 0x16, 0x00, 
  0x00, 0xFF, 0x00, 0x00, 0x00, 0x80, 0x0A, 0x00, 0x00, 0xFC, 0x03, 0x00, 
  0x00, 0x40, 0x01, 0x00, 0x00, 0xF8, 0x07, 0x00, 0x00, 0xB0, 0x04, 0x00, 
  0x00, 0xF0, 0x0F, 0x00, 0x00, 0x08, 0x02, 0x00, 0x00, 0xE0, 0x3F, 0x00, 
  0x00, 0x44, 0x11, 0x00, 0x00, 0xE8, 0x3F, 0x00, 0x00, 0x00, 0x55, 0x55, 
  0x55, 0xF5, 0xFF, 0x00, 0x00, 0xA1, 0xAA, 0xAA, 0xAA, 0xEA, 0xFF, 0x00, 
  0x80, 0x44, 0x77, 0x77, 0x77, 0xFF, 0xFF, 0x01, 0x40, 0xA0, 0xDD, 0xDD, 
  0xDD, 0xF5, 0xFF, 0x03, 0x00, 0xA8, 0xFF, 0x77, 0xF7, 0xFF, 0xFF, 0x07, 
  0x20, 0xD1, 0xFE, 0xFF, 0xBF, 0xFF, 0xFF, 0x07, 0x00, 0xD4, 0xFF, 0xFF, 
  0xFF, 0xFF, 0xFF, 0x0F, 0x10, 0xF0, 0xFF, 0xFF, 0xFF, 0xFF, 0xFF, 0x0F, 
  0x00, 0xED, 0xFF, 0xFF, 0xFF, 0xFF, 0xFF, 0x1F, 0x08, 0xFA, 0xFF, 0xFF, 
  0xFF, 0xFF, 0xFF, 0x1F, 0x00, 0xFC, 0xFF, 0xFF, 0xFF, 0xFF, 0xFF, 0x3F, 
  0x80, 0xFE, 0xFF, 0xFF, 0xFF, 0xFF, 0xFF, 0x3F, 0x00, 0xFD, 0xFF, 0xFF, 
  0xFF, 0xFF, 0xFF, 0x7F, 0x00, 0xFF, 0xFF, 0xFF, 0xFF, 0xFF, 0xFF, 0x7F, 
  0x40, 0xFF, 0xFF, 0xFF, 0xFF, 0xFF, 0xFF, 0x7F, 0x02, 0xFD, 0xFF, 0xFF, 
  0xFF, 0xFF, 0xFF, 0x7F, 0x00, 0x00, 0x00, 0x00, 0x00, 0x00, 0xAA, 0xFF, 
  0x40, 0xFB, 0x5F, 0x55, 0x15, 0xF8, 0xFF, 0xFF, 0x40, 0xFF, 0xFF, 0xFF, 
  0xDF, 0xFF, 0xFF, 0xFF, 0x80, 0xAA, 0x6B, 0xAB, 0xAD, 0xB0, 0xFF, 0xFF, 
  0x00, 0x00, 0x00, 0x00, 0x00, 0x00, 0x40, 0xFD, 0x80, 0x54, 0x09, 0x00, 
  0x00, 0x48, 0xAA, 0xFE, 0x50, 0xFF, 0xFF, 0xFF, 0xFF, 0xFF, 0xFF, 0xFF, 
  0x48, 0xB5, 0xF7, 0xFF, 0x7E, 0xF7, 0xFF, 0xFF, 0x80, 0xAA, 0x04, 0x00, 
  0x81, 0x08, 0x55, 0xF7, 0x00, 0x00, 0x00, 0x00, 0x00, 0x00, 0x00, 0xC0, 
  0x00, 0x24, 0x29, 0x00, 0x10, 0x52, 0xDA, 0xAA, 0xA8, 0xFF, 0xFF, 0xFF, 
  0xFF, 0xFD, 0x7F, 0xD5, 0x40, 0x54, 0x55, 0x55, 0x49, 0xAB, 0xFD, 0x6A, 
  0x10, 0x01, 0x00, 0x00, 0x00, 0x00, 0x00, 0x40, 0x00, 0x54, 0x02, 0x00, 
  0x00, 0x90, 0xAA, 0x42, 0x50, 0xB5, 0xFB, 0x0B, 0xEA, 0xEF, 0x7F, 0x29, 
  0xA0, 0xDE, 0xAF, 0x16, 0x5A, 0xBA, 0xBF, 0x22, 0x40, 0xF5, 0x6A, 0xAD, 
  0xAA, 0xED, 0x7D, 0x21, 0xA0, 0xDE, 0xDF, 0xAA, 0xAA, 0xBA, 0xBF, 0x10, 
  0x40, 0x75, 0x55, 0x55, 0x55, 0xD5, 0x5F, 0x10, 0x40, 0xDB, 0xAD, 0x22, 
  0x02, 0x68, 0x1D, 0x09, 0x40, 0xF5, 0x56, 0x49, 0x09, 0xA0, 0x5F, 0x08, 
  0x80, 0x5E, 0x55, 0x12, 0x04, 0xD0, 0x16, 0x04, 0x40, 0xEB, 0x95, 0x04, 
  0x01, 0xA0, 0x0D, 0x04, 0x00, 0x5F, 0x25, 0x12, 0x00, 0x50, 0x07, 0x02, 
  0x00, 0xFE, 0x95, 0x00, 0x00, 0xC0, 0x0A, 0x00, 0x00, 0xB6, 0x4A, 0x00, 
  0x00, 0x50, 0x83, 0x00, 0x00, 0xF8, 0x15, 0x00, 0x00, 0x40, 0x05, 0x00, 
  0x00, 0x58, 0x23, 0x00, 0x00, 0x50, 0x41, 0x00, 0x00, 0xE0, 0x8D, 0x00, 
  0x00, 0x40, 0x11, 0x00, 0x00, 0xC0, 0x2A, 0x00, 0x00, 0x50, 0x00, 0x00, 
  0x00, 0x00, 0x0B, 0x00, 0x00, 0x48, 0x04, 0x00, 0x00, 0x00, 0x2E, 0x00, 
  0x00, 0x10, 0x01, 0x00, 0x00, 0x00, 0x50, 0x00, 0x00, 0x40, 0x00, 0x00, 
  0x00, 0x00, 0xA0, 0x00, 0x00, 0x14, 0x00, 0x00, 0x00, 0x00, 0x00, 0x02, 
  0x00, 0x04, 0x00, 0x00, 0x00, 0x00, 0x00, 0x00, 0x40, 0x01, 0x00, 0x00, 
  0x00, 0x00, 0x00, 0x00, 0x00, 0x00, 0x00, 0x00, };
