/* XPM */
static char *image_noalp_64[] = {
/* columns rows colors chars-per-pixel */
"64 64 186 2 ",
"   c #767676",
".  c #DB1E18",
"X  c #CE2B0A",
"o  c #D42C0B",
"O  c #D53105",
"+  c #D6330A",
"@  c #DA2712",
"#  c #C73A15",
"$  c #E8231C",
"%  c #F72B19",
"&  c #FA2D19",
"*  c #DD112D",
"=  c #D60A33",
"-  c #DC0933",
";  c #CC143D",
":  c #E70D29",
">  c #EA0C2B",
",  c #E81A24",
"<  c #F6192A",
"1  c #F9192D",
"2  c #E20831",
"3  c #FE3225",
"4  c #FF332C",
"5  c #FE2432",
"6  c #FF2C33",
"7  c #FF3333",
"8  c #F53D3D",
"9  c #BA4F26",
"0  c #BC254E",
"q  c #A95155",
"w  c #936844",
"e  c #91794B",
"r  c #934977",
"t  c #BB7D7D",
"y  c #D94B4B",
"u  c #DE5555",
"i  c #ED4545",
"p  c #E54D4D",
"a  c #CA6F6F",
"s  c #D26161",
"d  c #C47575",
"f  c #2AF61A",
"g  c #10DC2E",
"h  c #0AD633",
"j  c #0FD138",
"k  c #1BE724",
"l  c #27EC21",
"z  c #31FD23",
"x  c #33FF2B",
"c  c #33FF33",
"v  c #39F83B",
"b  c #2EB158",
"n  c #7C8F5E",
"m  c #489872",
"M  c #739967",
"N  c #4BAD7F",
"B  c #5DB07A",
"V  c #69A470",
"C  c #7DBC7D",
"Z  c #10D246",
"A  c #2EFE4B",
"S  c #2AFD5A",
"D  c #0EDC6E",
"F  c #1CE56A",
"G  c #2CF767",
"H  c #2DEF7B",
"J  c #2DF277",
"K  c #5BD75B",
"L  c #59DB59",
"P  c #4BE74B",
"I  c #6BCB6B",
"U  c #65D065",
"Y  c #75C175",
"T  c #CDCD7E",
"R  c #DCDC75",
"E  c #D7D77A",
"W  c #E7E775",
"Q  c #E4E47C",
"!  c #7F5C8C",
"~  c #6A6E9A",
"^  c #7F58B5",
"/  c #5F77AD",
"(  c #6A6EA2",
")  c #6077AD",
"_  c #7C7CBD",
"`  c #3333FF",
"'  c #3D38F9",
"]  c #482EFF",
"[  c #5A2CFD",
"{  c #6327FF",
"}  c #762BF3",
"|  c #2E4AFF",
" . c #3040FF",
".. c #2B59FE",
"X. c #2D69F6",
"o. c #2B7AF2",
"O. c #5858DB",
"+. c #6969CD",
"@. c #7676C1",
"#. c #5050E3",
"$. c #4141F1",
"%. c #8453BB",
"&. c #9938D8",
"*. c #932CE8",
"=. c #8B48C6",
"-. c #CE7ECE",
";. c #D978D6",
":. c #DA74DA",
">. c #E676E6",
",. c #E47CE4",
"<. c #558982",
"1. c #5085BF",
"2. c #42A7A7",
"3. c #1AD78F",
"4. c #2CC993",
"5. c #22D298",
"6. c #36D998",
"7. c #2CED84",
"8. c #2CE69A",
"9. c #4AC48A",
"0. c #3798D8",
"q. c #2C87ED",
"w. c #2C9BE5",
"e. c #4591CF",
"r. c #7ECFCF",
"t. c #7AD1D1",
"y. c #7ADBDB",
"u. c #73E2E2",
"i. c #7FEBEB",
"p. c #B68484",
"a. c #A69A9A",
"s. c #8AB08A",
"d. c #93AB93",
"f. c #BCBC8B",
"g. c #A4A49B",
"h. c #B2B293",
"j. c #9696A8",
"k. c #8787B2",
"l. c #A49DA4",
"z. c #BC8CBC",
"x. c #B492B4",
"c. c #8BB9B9",
"v. c #92B4B4",
"b. c gray68",
"n. c #E2B988",
"m. c #8BD3A5",
"M. c #C5C584",
"N. c #CACA80",
"B. c #EAEA85",
"V. c #EEEE95",
"C. c #EFEF9A",
"Z. c #F0F09D",
"A. c #F2F2A4",
"S. c #F8F8B7",
"D. c #8CA3D2",
"F. c #C485C4",
"G. c #C981C9",
"H. c #EA84EA",
"J. c #EC8FEC",
"K. c #ED95ED",
"L. c #EF9EEF",
"P. c #F09AF0",
"I. c #F2A5F2",
"U. c #F8B7F8",
"Y. c #85C3C3",
"T. c #84EAEA",
"R. c #8BEBEB",
"E. c #9CEEEC",
"W. c #A1E6F0",
"Q. c #A7F3F3",
"!. c #B8F8F8",
"~. c #FCFCCA",
"^. c #FDFDDB",
"/. c #F8C1F8",
"(. c #FDCBFD",
"). c #FEDDFE",
"_. c #CAFEFE",
"`. c #D9FEFE",
"'. c #FFFFEE",
"]. c #FFEDFF",
"[. c #E6FFFF",
"{. c #EAFFFF",
"}. c #FFFFF3",
"|. c #FFF3FF",
" X c #F5FFFF",
".X c #FFFFFF",
/* pixels */
"  b.b.b.b.b.b.b.b.b.b.b.b.b.b.b.b.b.b.b.b.b.b.b.b.b.b.b.b.b.b.b.b.b.b.b.b.b.b.b.b.b.b.b.b.b.b.b.b.b.b.b.b.b.b.b.b.b.b.b.b.b.b.  ",
"b..X.X.X.X.X.X.X.X.X.X.X.X.X.X.X.X.X.X.X.X.X.X.X.X.X.X.X.X.X.X.X.X.X.X.X.X.X.X.X.X.X.X.X.X.X.X.X.X.X.X.X.X.X.X.X.X.X.X.X.X.X.Xb.",
"b..X.X.X.X.X.X.X.X.X.X.X.X.X.X.X.X.X.X.X.X.X.X.X.X.X.X.X.X.X X{.{. X.X.X.X.X.X.X.X.X.X.X.X.X.X.X.X.X.X.X.X.X.X.X.X.X.X.X.X.X.Xb.",
"b..X.X.X.X.X.X.X.X.X.X.X.X.X.X.X.X.X.X.X.X.X.X.X.X X!.R.y.t.Y.v.v.Y.t.y.R.!. X.X.X.X.X.X.X.X.X.X.X.X.X.X.X.X.X.X.X.X.X.X.X.X.Xb.",
"b..X.X.X.X.X.X.X.X.X.X.X.X.X.X.X.X.X.X.X.X.X.X`.T.r.t i 7 7 7 7 7 7 7 7 i t r.T.`..X.X.X.X.X.X.X.X.X.X.X.X.X.X.X.X.X.X.X.X.X.Xb.",
"b..X.X.X.X.X.X.X.X.X.X.X.X.X.X.X.X.X.X.X.X{.T.v.i 7 7 7 7 7 7 7 7 7 7 7 7 7 7 i v.T.{..X.X.X.X.X.X.X.X.X.X.X.X.X.X.X.X.X.X.X.Xb.",
"b..X.X.X.X.X.X.X.X.X.X.X.X.X.X.X.X.X.X.X!.t.p 7 7 7 7 7 7 7 7 7 7 7 7 7 7 7 7 7 7 p t.!..X.X.X.X.X.X.X.X.X.X.X.X.X.X.X.X.X.X.Xb.",
"b..X.X.X.X.X.X.X.X.X.X.X.X.X.X.X.X.X.XR.a.7 7 7 7 7 7 7 7 7 7 7 7 7 7 7 7 7 7 7 7 7 7 a.R..X.X.X.X.X.X.X.X.X.X.X.X.X.X.X.X.X.Xb.",
"b..X.X.X.X.X.X.X.X.X.X.X.X.X.X.X.X.Xi.d 7 7 7 7 7 7 7 7 7 7 7 7 7 7 7 7 7 7 7 7 7 7 7 7 d i..X.X.X.X.X.X.X.X.X.X.X.X.X.X.X.X.Xb.",
"b..X.X.X.X.X.X.X.X.X.X.X.X.X.X.X.XT.a 7 7 7 7 7 7 7 7 7 7 7 7 7 7 7 7 7 7 7 7 7 7 7 7 7 7 a T..X.X.X.X.X.X.X.X.X.X.X.X.X.X.X.Xb.",
"b..X.X.X.X.X.X.X.X.X.X.X.X.X.X.XQ.p.7 7 7 7 7 7 7 7 7 7 7 7 7 7 7 7 7 7 7 7 7 7 7 7 7 7 7 7 p.Q..X.X.X.X.X.X.X.X.X.X.X.X.X.X.Xb.",
"b..X.X.X.X.X.X.X.X.X.X.X.X.X.X`.c.7 7 7 7 7 7 7 7 7 7 7 7 7 7 7 7 7 7 7 7 7 7 7 7 7 7 7 7 7 7 c.`..X.X.X.X.X.X.X.X.X.X.X.X.X.Xb.",
"b..X.X.X.X.X.X.X.X.X.X.X.X.X.Xu.8 7 7 7 7 7 7 7 7 7 7 7 7 7 7 7 7 7 7 7 7 7 7 7 7 7 7 7 7 7 7 8 u..X.X.X.X.X.X.X.X.X.X.X.X.X.Xb.",
"b..X.X.X.X.X.X.X.X.X.X.X.X.X!.p.7 7 7 7 7 7 7 7 7 7 7 7 7 7 7 7 7 7 7 7 7 7 7 7 7 7 7 7 7 7 7 7 p.!..X.X.X.X.X.X.X.X.X.X.X.X.Xb.",
"b..X.X.X.X.X.X.X.X.X.X.X.X.Xu.7 7 7 7 7 7 7 7 7 7 7 7 7 7 7 7 7 7 7 7 7 7 7 7 7 7 7 7 7 7 7 7 7 7 u..X.X.X.X.X.X.X.X.X.X.X.X.Xb.",
"b..X.X.X.X.X.X.X.X.X.X.X.X_.a.7 7 7 7 7 7 7 7 7 7 7 7 7 7 7 7 7 7 7 7 7 7 7 7 7 7 7 7 7 7 7 7 7 7 a._..X.X.X.X.X.X.X.X.X.X.X.Xb.",
"b..X.X.X.X.X.X.X.X.X.X.X.XT.i 7 7 7 7 7 7 7 7 7 7 7 7 7 7 7 7 7 7 7 7 7 7 7 7 7 7 7 7 7 7 7 7 7 7 i R..X.X.X.X.X.X.X.X.X.X.X.Xb.",
"b..X.X.X.X.X.X.X.X.X.X.X.Xy.7 7 7 7 7 7 7 7 7 7 7 7 7 7 7 7 7 7 7 7 7 7 7 7 7 7 7 7 7 7 7 7 7 7 7 7 y..X.X.X.X.X.X.X.X.X.X.X.Xb.",
"b..X.X.X.X.X.X.X.X.X.X.X[.v.7 7 7 7 7 7 7 7 7 7 7 7 7 7 7 7 7 7 7 7 7 7 7 7 7 7 7 7 7 7 7 7 7 7 7 7 v.{..X.X.X.X.X.X.X.X.X.X.Xb.",
"b..X.X.X.X.X.X.X.X.X.X.X_.p.7 7 7 7 7 7 7 7 7 7 7 7 7 7 7 7 7 7 7 7 7 7 7 7 7 7 7 7 7 7 7 7 7 7 7 7 p._..X.X.X.X.X.X.X.X.X.X.Xb.",
"b..X.X.X.X.X.X.X.X.X.X.XQ.s 7 7 7 7 7 7 7 7 7 7 7 7 7 7 7 7 7 7 7 7 7 7 7 7 7 7 7 7 7 7 7 7 7 7 7 7 s Q..X.X.X.X.X.X.X.X.X.X.Xb.",
"b..X.X.X.X.X.X.X.X.X.X.XE.u 7 7 7 7 7 7 7 7 7 7 7 7 7 7 7 7 7 7 7 7 7 7 7 7 7 7 7 7 7 7 7 7 7 7 7 7 u E..X.X.X.X.X.X.X.X.X.X.Xb.",
"b..X.X.X.X.X.X.X.X.X.X.XE.p 7 4 3 & & & % % % & & 3 7 7 7 7 7 7 7 7 7 7 7 7 5 1 1 1 < < 1 1 1 5 6 7 p E..X.X.X.X.X.X.X.X.X.X.Xb.",
"b..X.X.X.X.X.X.X.X.X.X.XE.y & $ * = = = = = = = * , % & 3 7 7 7 7 7 7 5 1 < $ + + + + + + + + @ , 1 y W..X.X.X.X.X.X.X.X.X.X.Xb.",
"b..X.X.X.X.X.X.X.X.X}.V.m.q = = = = = = = = = = = = = = , & 3 7 7 5 1 $ + + + + + + + + + + + + + + q D.J.|..X.X.X.X.X.X.X.X.Xb.",
"b..X.X.X.X.X.X.X.XS.R O...! = = = = = = = = = = = = = = = = , & 1 $ + + + + + + + + + + + + + + + + n S L :./..X.X.X.X.X.X.X.Xb.",
"b..X.X.X.X.X.X.XV.g.` `  .1.= = = = = = = = = = = = = = = = - > o + + + + + + + + + + + + + + + + + 9.v c c l.K..X.X.X.X.X.X.Xb.",
"b..X.X.X.X.X.XB.@.` ` ` ` 0.= = = = = = = = = = = = = = = 2 : X X O + + + + + + + + + + + + + + + + 6.c c c c Y H.|..X.X.X.X.Xb.",
"b..X.X.X.X.XB.+.` ` ` ` ` q.0 = = = = = = = = = = = = = - : X X X X O + + + + + + + + + + + + + + 9 7.c c c c c I H..X.X.X.X.Xb.",
"b..X.X.X.XC._ ` ` ` ` ` ` | ) = = = = = = = = = = = = - > X X X X X X O + + + + + + + + + + + + + B A c c c c c c C P..X.X.X.Xb.",
"b..X.X.X~.h.` ` ` ` ` ` ` ` w.; = = = = = = = = = = = > o X X X X X X X O + + + + + + + + + + + # 8.c c c c c c c c x.(..X.X.Xb.",
"b..X.X.XR ' ` ` ` ` ` ` ` ` ..( = = = = = = = = = = 2 . X X X X X X X X X O + + + + + + + + + + V S c c c c c c c c v :.|..X.Xb.",
"b..X.XZ.+.` ` ` ` ` ` ` ` ` ` w.0 = = = = = = = = - > X X X X X X X X X X O + + + + + + + + + 9 8.c c c c c c c c c c I I..X.Xb.",
"b..X.XE ` ` ` ` ` ` ` ` ` ` ` | 0.= = = = = = = = 2 @ X X X X X X X X X X X O + + + + + + + + 6.A c c c c c c c c c c c ;.|..Xb.",
"b..XS.@.` ` ` ` ` ` ` ` ` ` ` ` X./ = = = = = = = > X X X X X X X X X X X X O + + + + + + + B G c c c c c c c c c c c c C U..Xb.",
"b..XQ ' ` ` ` ` ` ` ` ` ` ` ` ` ` o.~ = = = = = 2 . X X X X X X X X X X X X o + + + + + + M J c c c c c c c c c c c c c v ,..Xb.",
"b.}.M.` ` ` ` ` ` ` ` ` ` ` ` ` ` ` o.( = = = = > o X X X X X X X X X X X X X O + + + + V H c c c c c c c c c c c c c c c G.|.b.",
"b.~.k.` ` ` ` ` ` ` ` ` ` ` ` ` ` ` ` X.e.; = = > X X X X X X X X X X X X X X O + + # 9.G c c c c c c c c c c c c c c c c s.(.b.",
"b.A.O.` ` ` ` ` ` ` ` ` ` ` ` ` ` ` ` ` | w.r - : X X X X X X X X X X X X X X O + e 8.A c c c c c c c c c c c c c c c c c K I.b.",
"b.B.' ` ` ` ` ` ` ` ` ` ` ` ` ` ` ` ` ` ` ` o.e.q X X X X X X X X X X X X X X w 6.J c c c c c c c c c c c c c c c c c c c v H.b.",
"b.Q ` ` ` ` ` ` ` ` ` ` ` ` ` ` ` ` ` ` ` ` ` [ 2.5.N w # X X X X X X # w N 5.F x c c c c c c c c c c c c c c c c c c c c c ,.b.",
"b.Q ` ` ` ` ` ` ` ` ` ` ` ` ` ` ` ` ` ` ` ` ` { m h Z D 3.5.4.4.4.4.5.3.D Z h k x c c c c c c c c c c c c c c c c c c c c c ,.b.",
"b.Q ` ` ` ` ` ` ` ` ` ` ` ` ` ` ` ` ` ` ` ` ` { <.h h h h h h h h h h h h h h k x c c c c c c c c c c c c c c c c c c c c c ,.b.",
"b.B.' ` ` ` ` ` ` ` ` ` ` ` ` ` ` ` ` ` ` ` ` [ ~ h h h h h h h h h h h h h h k x c c c c c c c c c c c c c c c c c c c c v H.b.",
"b.C.O.` ` ` ` ` ` ` ` ` ` ` ` ` ` ` ` ` ` ` ` ] %.h h h h h h h h h h h h h h f c c c c c c c c c c c c c c c c c c c c c L L.b.",
"b.S._ ` ` ` ` ` ` ` ` ` ` ` ` ` ` ` ` ` ` ` ` ` &.h h h h h h h h h h h h h h f c c c c c c c c c c c c c c c c c c c c c C U.b.",
"b.'.f.` ` ` ` ` ` ` ` ` ` ` ` ` ` ` ` ` ` ` ` ` *.j h h h h h h h h h h h h h f c c c c c c c c c c c c c c c c c c c c c F.].b.",
"b..XR ` ` ` ` ` ` ` ` ` ` ` ` ` ` ` ` ` ` ` ` ` } m h h h h h h h h h h h h k z c c c c c c c c c c c c c c c c c c c c c >..Xb.",
"b..XA.+.` ` ` ` ` ` ` ` ` ` ` ` ` ` ` ` ` ` ` ` ' =.h h h h h h h h h h h h f c c c c c c c c c c c c c c c c c c c c c U I..Xb.",
"b..X'.N.` ` ` ` ` ` ` ` ` ` ` ` ` ` ` ` ` ` ` ` ` *.Z h h h h h h h h h h g f c c c c c c c c c c c c c c c c c c c c c -.|..Xb.",
"b..X.XV.O.` ` ` ` ` ` ` ` ` ` ` ` ` ` ` ` ` ` ` ` ] ^ h h h h h h h h h h f x c c c c c c c c c c c c c c c c c c c c L J..X.Xb.",
"b..X.X}.E ` ` ` ` ` ` ` ` ` ` ` ` ` ` ` ` ` ` ` ` ` *.b h h h h h h h h g f c c c c c c c c c c c c c c c c c c c c c ;.]..X.Xb.",
"b..X.X.XS.j.` ` ` ` ` ` ` ` ` ` ` ` ` ` ` ` ` ` ` ` ' &.j h h h h h h h f c c c c c c c c c c c c c c c c c c c c c d.U..X.X.Xb.",
"b..X.X.X.XB.O.` ` ` ` ` ` ` ` ` ` ` ` ` ` ` ` ` ` ` ` [ ^ h h h h h h f x c c c c c c c c c c c c c c c c c c c c K H..X.X.X.Xb.",
"b..X.X.X.X}.W #.` ` ` ` ` ` ` ` ` ` ` ` ` ` ` ` ` ` ` ` } ~ h h h h k z c c c c c c c c c c c c c c c c c c c c P >.|..X.X.X.Xb.",
"b..X.X.X.X.X}.W O.` ` ` ` ` ` ` ` ` ` ` ` ` ` ` ` ` ` ` ` } ( h h l z c c c c c c c c c c c c c c c c c c c c L >.|..X.X.X.X.Xb.",
"b..X.X.X.X.X.X}.W @.` ` ` ` ` ` ` ` ` ` ` ` ` ` ` ` ` ` ` ` } %.l z c c c c c c c c c c c c c c c c c c c c C >.|..X.X.X.X.X.Xb.",
"b..X.X.X.X.X.X.X.XZ.f.$.` ` ` ` ` ` ` ` ` ` ` ` ` ` ` ` ` ` +.n.;.U c c c c c c c c c c c c c c c c c c P z.L..X.X.X.X.X.X.X.Xb.",
"b..X.X.X.X.X.X.X.X.X^.W j.' ` ` ` ` ` ` ` ` ` ` ` ` ` ` O.T V..X|.K.G.L c c c c c c c c c c c c c c v l.>.)..X.X.X.X.X.X.X.X.Xb.",
"b..X.X.X.X.X.X.X.X.X.X.X~.Q M.@.' ` ` ` ` ` ` ` ` #.j.E V.'..X.X.X.X].K.;.d.P c c c c c c c c v Y F.,.(..X.X.X.X.X.X.X.X.X.X.Xb.",
"b..X.X.X.X.X.X.X.X.X.X.X.X.X'.S.B.E T M.h.f.M.E Q V.~..X.X.X.X.X.X.X.X.X.X(.K.,.;.G.z.x.F.-.;.H.U.|..X.X.X.X.X.X.X.X.X.X.X.X.Xb.",
"b..X.X.X.X.X.X.X.X.X.X.X.X.X.X.X.X.X.X}.'.'..X.X.X.X.X.X.X.X.X.X.X.X.X.X.X.X.X.X.X|.].].|..X.X.X.X.X.X.X.X.X.X.X.X.X.X.X.X.X.Xb.",
"b..X.X.X.X.X.X.X.X.X.X.X.X.X.X.X.X.X.X.X.X.X.X.X.X.X.X.X.X.X.X.X.X.X.X.X.X.X.X.X.X.X.X.X.X.X.X.X.X.X.X.X.X.X.X.X.X.X.X.X.X.X.Xb.",
"  b.b.b.b.b.b.b.b.b.b.b.b.b.b.b.b.b.b.b.b.b.b.b.b.b.b.b.b.b.b.b.b.b.b.b.b.b.b.b.b.b.b.b.b.b.b.b.b.b.b.b.b.b.b.b.b.b.b.b.b.b.b.  "
};
