/* XPM */
static char *image_noalp_64[] = {
/* columns rows colors chars-per-pixel */
"64 64 188 2 ",
"   c #767676",
".  c #DB1E18",
"X  c #CE2B0A",
"o  c #D42C0B",
"O  c #D53105",
"+  c #D6330A",
"@  c #DA2712",
"#  c #C73A15",
"$  c #E8231C",
"%  c #F62A19",
"&  c #FA2D19",
"*  c #F72B18",
"=  c #D60A33",
"-  c #DC0933",
";  c #CC143D",
":  c #DD112D",
">  c #EA0C2B",
",  c #E70D29",
"<  c #E81A24",
"1  c #F9192D",
"2  c #F6192A",
"3  c #E20831",
"4  c #FE3225",
"5  c #FF332C",
"6  c #FE2432",
"7  c #FF2C33",
"8  c #FF3333",
"9  c #F53D3D",
"0  c #BA4F26",
"q  c #BC254E",
"w  c #A95155",
"e  c #936844",
"r  c #91794B",
"t  c #BB7D7D",
"y  c #934977",
"u  c #DE5555",
"i  c #D94B4B",
"p  c #ED4545",
"a  c #E54D4D",
"s  c #CA6F6F",
"d  c #D26161",
"f  c #C47575",
"g  c #2AF61A",
"h  c #0AD633",
"j  c #0FD138",
"k  c #10DC2E",
"l  c #1BE724",
"z  c #27EC21",
"x  c #31FD23",
"c  c #33FF2B",
"v  c #33FF33",
"b  c #38FA38",
"n  c #3AF83E",
"m  c #2EB158",
"M  c #7C8F5E",
"N  c #489872",
"B  c #4BAD7F",
"V  c #5DB07A",
"C  c #7DBC7D",
"Z  c #69A470",
"A  c #739967",
"S  c #10D246",
"D  c #2EFE4B",
"F  c #2AFD5A",
"G  c #0EDC6E",
"H  c #1CE56A",
"J  c #2CF767",
"K  c #2DF277",
"L  c #2DEF7B",
"P  c #59DB59",
"I  c #5BD75B",
"U  c #4BE74B",
"Y  c #6BCB6B",
"T  c #75C175",
"R  c #65D065",
"E  c #CDCD7E",
"W  c #DCDC75",
"Q  c #D7D77A",
"!  c #E4E47C",
"~  c #E7E775",
"^  c #7F5C8C",
"/  c #6A6E9A",
"(  c #7F58B5",
")  c #5F77AD",
"_  c #6A6EA2",
"`  c #7C7CBD",
"'  c #6077AD",
"]  c #3333FF",
"[  c #3D38F9",
"{  c #482EFF",
"}  c #5A2CFD",
"|  c #6327FF",
" . c #762BF3",
".. c #2E4AFF",
"X. c #2B59FE",
"o. c #3040FF",
"O. c #2D69F6",
"+. c #2B7AF2",
"@. c #5858DB",
"#. c #6969CD",
"$. c #7676C1",
"%. c #5050E3",
"&. c #4141F1",
"*. c #8453BB",
"=. c #9938D8",
"-. c #932CE8",
";. c #8B48C6",
":. c #CE7ECE",
">. c #DA74DA",
",. c #D978D6",
"<. c #E47CE4",
"1. c #E676E6",
"2. c #558982",
"3. c #5085BF",
"4. c #42A7A7",
"5. c #1AD78F",
"6. c #2CC993",
"7. c #22D298",
"8. c #36D998",
"9. c #2CE69A",
"0. c #2CED84",
"q. c #4AC48A",
"w. c #3798D8",
"e. c #2C9BE5",
"r. c #2C87ED",
"t. c #4591CF",
"y. c #7ECFCF",
"u. c #7AD1D1",
"i. c #7ADBDB",
"p. c #73E2E2",
"a. c #7FEBEB",
"s. c #B68484",
"d. c #A69A9A",
"f. c #93AB93",
"g. c #8AB08A",
"h. c #BCBC8B",
"j. c #B2B293",
"k. c #A4A49B",
"l. c #9696A8",
"z. c #8787B2",
"x. c #A49DA4",
"c. c #BC8CBC",
"v. c #B492B4",
"b. c #8BB9B9",
"n. c #92B4B4",
"m. c gray68",
"M. c #E2B988",
"N. c #8BD3A5",
"B. c #C6C683",
"V. c #EAEA85",
"C. c #EEEE95",
"Z. c #EFEF9A",
"A. c #F0F09D",
"S. c #F2F2A4",
"D. c #F8F8B7",
"F. c #8CA3D2",
"G. c #C485C4",
"H. c #C981C9",
"J. c #EA84EA",
"K. c #EC8FEC",
"L. c #EE98EE",
"P. c #F09AF0",
"I. c #F2A5F2",
"U. c #F8B7F8",
"Y. c #85C3C3",
"T. c #84EAEA",
"R. c #8BEBEB",
"E. c #9CEEEE",
"W. c #9BEEE9",
"Q. c #A7F3F3",
"!. c #B5F6F6",
"~. c #BBF9F9",
"^. c #A1E6F0",
"/. c #FCFCCA",
"(. c #FDFDDB",
"). c #FDCBFD",
"_. c #F8C1F8",
"`. c #FEDDFE",
"'. c #CAFEFE",
"]. c #D9FEFE",
"[. c #FFFFEE",
"{. c #FFEDFF",
"}. c #EAFFFF",
"|. c #E6FFFF",
" X c #FFFFF3",
".X c #FFF3FF",
"XX c #F5FFFF",
"oX c #FFFFFF",
/* pixels */
"  m.m.m.m.m.m.m.m.m.m.m.m.m.m.m.m.m.m.m.m.m.m.m.m.m.m.m.m.m.m.m.m.m.m.m.m.m.m.m.m.m.m.m.m.m.m.m.m.m.m.m.m.m.m.m.m.m.m.m.m.m.m.  ",
"m.oXoXoXoXoXoXoXoXoXoXoXoXoXoXoXoXoXoXoXoXoXoXoXoXoXoXoXoXoXoXoXoXoXoXoXoXoXoXoXoXoXoXoXoXoXoXoXoXoXoXoXoXoXoXoXoXoXoXoXoXoXoXm.",
"m.oXoXoXoXoXoXoXoXoXoXoXoXoXoXoXoXoXoXoXoXoXoXoXoXoXoXoXoXoXXX}.}.XXoXoXoXoXoXoXoXoXoXoXoXoXoXoXoXoXoXoXoXoXoXoXoXoXoXoXoXoXoXm.",
"m.oXoXoXoXoXoXoXoXoXoXoXoXoXoXoXoXoXoXoXoXoXoXoXoXXX~.R.i.u.Y.n.n.Y.u.i.R.~.XXoXoXoXoXoXoXoXoXoXoXoXoXoXoXoXoXoXoXoXoXoXoXoXoXm.",
"m.oXoXoXoXoXoXoXoXoXoXoXoXoXoXoXoXoXoXoXoXoXoX].T.y.t p 8 8 8 8 8 8 8 8 p t y.T.].oXoXoXoXoXoXoXoXoXoXoXoXoXoXoXoXoXoXoXoXoXoXm.",
"m.oXoXoXoXoXoXoXoXoXoXoXoXoXoXoXoXoXoXoXoX}.T.n.p 8 8 8 8 8 8 8 8 8 8 8 8 8 8 p n.T.}.oXoXoXoXoXoXoXoXoXoXoXoXoXoXoXoXoXoXoXoXm.",
"m.oXoXoXoXoXoXoXoXoXoXoXoXoXoXoXoXoXoXoX!.u.a 8 8 8 8 8 8 8 8 8 8 8 8 8 8 8 8 8 8 a u.!.oXoXoXoXoXoXoXoXoXoXoXoXoXoXoXoXoXoXoXm.",
"m.oXoXoXoXoXoXoXoXoXoXoXoXoXoXoXoXoXoXR.d.8 8 8 8 8 8 8 8 8 8 8 8 8 8 8 8 8 8 8 8 8 8 d.R.oXoXoXoXoXoXoXoXoXoXoXoXoXoXoXoXoXoXm.",
"m.oXoXoXoXoXoXoXoXoXoXoXoXoXoXoXoXoXa.f 8 8 8 8 8 8 8 8 8 8 8 8 8 8 8 8 8 8 8 8 8 8 8 8 f a.oXoXoXoXoXoXoXoXoXoXoXoXoXoXoXoXoXm.",
"m.oXoXoXoXoXoXoXoXoXoXoXoXoXoXoXoXT.s 8 8 8 8 8 8 8 8 8 8 8 8 8 8 8 8 8 8 8 8 8 8 8 8 8 8 s T.oXoXoXoXoXoXoXoXoXoXoXoXoXoXoXoXm.",
"m.oXoXoXoXoXoXoXoXoXoXoXoXoXoXoXQ.s.8 8 8 8 8 8 8 8 8 8 8 8 8 8 8 8 8 8 8 8 8 8 8 8 8 8 8 8 s.Q.oXoXoXoXoXoXoXoXoXoXoXoXoXoXoXm.",
"m.oXoXoXoXoXoXoXoXoXoXoXoXoXoX].b.8 8 8 8 8 8 8 8 8 8 8 8 8 8 8 8 8 8 8 8 8 8 8 8 8 8 8 8 8 8 b.].oXoXoXoXoXoXoXoXoXoXoXoXoXoXm.",
"m.oXoXoXoXoXoXoXoXoXoXoXoXoXoXp.9 8 8 8 8 8 8 8 8 8 8 8 8 8 8 8 8 8 8 8 8 8 8 8 8 8 8 8 8 8 8 9 p.oXoXoXoXoXoXoXoXoXoXoXoXoXoXm.",
"m.oXoXoXoXoXoXoXoXoXoXoXoXoX!.s.8 8 8 8 8 8 8 8 8 8 8 8 8 8 8 8 8 8 8 8 8 8 8 8 8 8 8 8 8 8 8 8 s.!.oXoXoXoXoXoXoXoXoXoXoXoXoXm.",
"m.oXoXoXoXoXoXoXoXoXoXoXoXoXp.8 8 8 8 8 8 8 8 8 8 8 8 8 8 8 8 8 8 8 8 8 8 8 8 8 8 8 8 8 8 8 8 8 8 p.oXoXoXoXoXoXoXoXoXoXoXoXoXm.",
"m.oXoXoXoXoXoXoXoXoXoXoXoX'.d.8 8 8 8 8 8 8 8 8 8 8 8 8 8 8 8 8 8 8 8 8 8 8 8 8 8 8 8 8 8 8 8 8 8 d.'.oXoXoXoXoXoXoXoXoXoXoXoXm.",
"m.oXoXoXoXoXoXoXoXoXoXoXoXT.p 8 8 8 8 8 8 8 8 8 8 8 8 8 8 8 8 8 8 8 8 8 8 8 8 8 8 8 8 8 8 8 8 8 8 p R.oXoXoXoXoXoXoXoXoXoXoXoXm.",
"m.oXoXoXoXoXoXoXoXoXoXoXoXi.8 8 8 8 8 8 8 8 8 8 8 8 8 8 8 8 8 8 8 8 8 8 8 8 8 8 8 8 8 8 8 8 8 8 8 8 i.oXoXoXoXoXoXoXoXoXoXoXoXm.",
"m.oXoXoXoXoXoXoXoXoXoXoX|.n.8 8 8 8 8 8 8 8 8 8 8 8 8 8 8 8 8 8 8 8 8 8 8 8 8 8 8 8 8 8 8 8 8 8 8 8 n.}.oXoXoXoXoXoXoXoXoXoXoXm.",
"m.oXoXoXoXoXoXoXoXoXoXoX'.s.8 8 8 8 8 8 8 8 8 8 8 8 8 8 8 8 8 8 8 8 8 8 8 8 8 8 8 8 8 8 8 8 8 8 8 8 s.'.oXoXoXoXoXoXoXoXoXoXoXm.",
"m.oXoXoXoXoXoXoXoXoXoXoXQ.d 8 8 8 8 8 8 8 8 8 8 8 8 8 8 8 8 8 8 8 8 8 8 8 8 8 8 8 8 8 8 8 8 8 8 8 8 d Q.oXoXoXoXoXoXoXoXoXoXoXm.",
"m.oXoXoXoXoXoXoXoXoXoXoXE.u 8 8 8 8 8 8 8 8 8 8 8 8 8 8 8 8 8 8 8 8 8 8 8 8 8 8 8 8 8 8 8 8 8 8 8 8 u E.oXoXoXoXoXoXoXoXoXoXoXm.",
"m.oXoXoXoXoXoXoXoXoXoXoXW.a 8 5 4 & & & % % % & & 4 8 8 8 8 8 8 8 8 8 8 8 8 6 1 1 1 2 2 1 1 1 6 7 8 a W.oXoXoXoXoXoXoXoXoXoXoXm.",
"m.oXoXoXoXoXoXoXoXoXoXoXW.i & $ : = = = = = = = : < % & 4 8 8 8 8 8 8 6 1 2 $ + + + + + + + + @ < 1 i ^.oXoXoXoXoXoXoXoXoXoXoXm.",
"m.oXoXoXoXoXoXoXoXoX XC.N.w = = = = = = = = = = = = = = < & 4 8 8 6 1 $ + + + + + + + + + + + + + + w F.K..XoXoXoXoXoXoXoXoXoXm.",
"m.oXoXoXoXoXoXoXoXD.W @.X.^ = = = = = = = = = = = = = = = = < & 1 $ + + + + + + + + + + + + + + + + M F P >._.oXoXoXoXoXoXoXoXm.",
"m.oXoXoXoXoXoXoXC.k.] ] o.3.= = = = = = = = = = = = = = = = - > o + + + + + + + + + + + + + + + + + q.b v v x.L.oXoXoXoXoXoXoXm.",
"m.oXoXoXoXoXoXV.$.] ] ] ] w.= = = = = = = = = = = = = = = 3 , X X O + + + + + + + + + + + + + + + + 8.v v v v T J..XoXoXoXoXoXm.",
"m.oXoXoXoXoXV.#.] ] ] ] ] r.q = = = = = = = = = = = = = - , X X X X O + + + + + + + + + + + + + + 0 0.v v v v v Y J.oXoXoXoXoXm.",
"m.oXoXoXoXZ.` ] ] ] ] ] ] ..' = = = = = = = = = = = = - > X X X X X X O + + + + + + + + + + + + + V D v v v v v v C P.oXoXoXoXm.",
"m.oXoXoX/.j.] ] ] ] ] ] ] ] e.; = = = = = = = = = = = > o X X X X X X X O + + + + + + + + + + + # 9.v v v v v v v v v.).oXoXoXm.",
"m.oXoXoXW [ ] ] ] ] ] ] ] ] X._ = = = = = = = = = = 3 . X X X X X X X X X O + + + + + + + + + + Z F v v v v v v v v b >..XoXoXm.",
"m.oXoXA.#.] ] ] ] ] ] ] ] ] ] e.q = = = = = = = = - > X X X X X X X X X X O + + + + + + + + + 0 9.v v v v v v v v v v Y I.oXoXm.",
"m.oXoXQ ] ] ] ] ] ] ] ] ] ] ] ..w.= = = = = = = = 3 @ X X X X X X X X X X X O + + + + + + + + 8.D v v v v v v v v v v v ,..XoXm.",
"m.oXD.$.] ] ] ] ] ] ] ] ] ] ] ] O.) = = = = = = = > X X X X X X X X X X X X O + + + + + + + V J v v v v v v v v v v v v C U.oXm.",
"m.oX! [ ] ] ] ] ] ] ] ] ] ] ] ] ] +./ = = = = = 3 . X X X X X X X X X X X X o + + + + + + A K v v v v v v v v v v v v v b <.oXm.",
"m. XB.] ] ] ] ] ] ] ] ] ] ] ] ] ] ] +._ = = = = > o X X X X X X X X X X X X X O + + + + Z L v v v v v v v v v v v v v v v H..Xm.",
"m./.z.] ] ] ] ] ] ] ] ] ] ] ] ] ] ] ] O.t.; = = > X X X X X X X X X X X X X X O + + # q.J v v v v v v v v v v v v v v v v g.).m.",
"m.S.@.] ] ] ] ] ] ] ] ] ] ] ] ] ] ] ] ] ..e.y - , X X X X X X X X X X X X X X O + r 9.D v v v v v v v v v v v v v v v v v I I.m.",
"m.V.[ ] ] ] ] ] ] ] ] ] ] ] ] ] ] ] ] ] ] ] +.t.w X X X X X X X X X X X X X X e 8.K v v v v v v v v v v v v v v v v v v v n J.m.",
"m.! ] ] ] ] ] ] ] ] ] ] ] ] ] ] ] ] ] ] ] ] ] } 4.7.B e # X X X X X X # e B 7.H c v v v v v v v v v v v v v v v v v v v v v <.m.",
"m.! ] ] ] ] ] ] ] ] ] ] ] ] ] ] ] ] ] ] ] ] ] | N h S G 5.7.6.6.6.6.7.5.G S h l c v v v v v v v v v v v v v v v v v v v v v <.m.",
"m.! ] ] ] ] ] ] ] ] ] ] ] ] ] ] ] ] ] ] ] ] ] | 2.h h h h h h h h h h h h h h l c v v v v v v v v v v v v v v v v v v v v v <.m.",
"m.V.[ ] ] ] ] ] ] ] ] ] ] ] ] ] ] ] ] ] ] ] ] } / h h h h h h h h h h h h h h l c v v v v v v v v v v v v v v v v v v v v b J.m.",
"m.Z.@.] ] ] ] ] ] ] ] ] ] ] ] ] ] ] ] ] ] ] ] { *.h h h h h h h h h h h h h h g v v v v v v v v v v v v v v v v v v v v v P P.m.",
"m.D.` ] ] ] ] ] ] ] ] ] ] ] ] ] ] ] ] ] ] ] ] ] =.h h h h h h h h h h h h h h g v v v v v v v v v v v v v v v v v v v v v C U.m.",
"m.[.h.] ] ] ] ] ] ] ] ] ] ] ] ] ] ] ] ] ] ] ] ] -.j h h h h h h h h h h h h h g v v v v v v v v v v v v v v v v v v v v v G.{.m.",
"m.oXW ] ] ] ] ] ] ] ] ] ] ] ] ] ] ] ] ] ] ] ] ]  .N h h h h h h h h h h h h l x v v v v v v v v v v v v v v v v v v v v v 1.oXm.",
"m.oXS.#.] ] ] ] ] ] ] ] ] ] ] ] ] ] ] ] ] ] ] ] [ ;.h h h h h h h h h h h h g v v v v v v v v v v v v v v v v v v v v v R I.oXm.",
"m.oX[.B.] ] ] ] ] ] ] ] ] ] ] ] ] ] ] ] ] ] ] ] ] -.S h h h h h h h h h h k g v v v v v v v v v v v v v v v v v v v v v :..XoXm.",
"m.oXoXC.@.] ] ] ] ] ] ] ] ] ] ] ] ] ] ] ] ] ] ] ] { ( h h h h h h h h h h g c v v v v v v v v v v v v v v v v v v v v P K.oXoXm.",
"m.oXoX XQ ] ] ] ] ] ] ] ] ] ] ] ] ] ] ] ] ] ] ] ] ] -.m h h h h h h h h k g v v v v v v v v v v v v v v v v v v v v v ,.{.oXoXm.",
"m.oXoXoXD.l.] ] ] ] ] ] ] ] ] ] ] ] ] ] ] ] ] ] ] ] [ =.j h h h h h h h g v v v v v v v v v v v v v v v v v v v v v f.U.oXoXoXm.",
"m.oXoXoXoXV.@.] ] ] ] ] ] ] ] ] ] ] ] ] ] ] ] ] ] ] ] } ( h h h h h h g c v v v v v v v v v v v v v v v v v v v v I J.oXoXoXoXm.",
"m.oXoXoXoX X~ %.] ] ] ] ] ] ] ] ] ] ] ] ] ] ] ] ] ] ] ]  ./ h h h h l x v v v v v v v v v v v v v v v v v v v v U 1..XoXoXoXoXm.",
"m.oXoXoXoXoX X~ @.] ] ] ] ] ] ] ] ] ] ] ] ] ] ] ] ] ] ] ]  ._ h h z x v v v v v v v v v v v v v v v v v v v v P 1..XoXoXoXoXoXm.",
"m.oXoXoXoXoXoX X~ $.] ] ] ] ] ] ] ] ] ] ] ] ] ] ] ] ] ] ] ]  .*.z x v v v v v v v v v v v v v v v v v v v v C 1..XoXoXoXoXoXoXm.",
"m.oXoXoXoXoXoXoXoXA.h.&.] ] ] ] ] ] ] ] ] ] ] ] ] ] ] ] ] ] #.M.,.R v v v v v v v v v v v v v v v v v v U c.P.oXoXoXoXoXoXoXoXm.",
"m.oXoXoXoXoXoXoXoXoX(.~ l.[ ] ] ] ] ] ] ] ] ] ] ] ] ] ] @.E C.oX.XL.H.P v v v v v v v v v v v v v v n x.1.`.oXoXoXoXoXoXoXoXoXm.",
"m.oXoXoXoXoXoXoXoXoXoXoX/.! B.$.[ ] ] ] ] ] ] ] ] %.l.Q C.[.oXoXoXoX{.L.,.f.U v v v v v v v v n T G.<.).oXoXoXoXoXoXoXoXoXoXoXm.",
"m.oXoXoXoXoXoXoXoXoXoXoXoXoX[.D.V.Q E B.j.h.B.Q ! C./.oXoXoXoXoXoXoXoXoXoX).L.<.,.H.c.v.G.:.,.J.U..XoXoXoXoXoXoXoXoXoXoXoXoXoXm.",
"m.oXoXoXoXoXoXoXoXoXoXoXoXoXoXoXoXoXoX X[.[.oXoXoXoXoXoXoXoXoXoXoXoXoXoXoXoXoXoXoX.X{.{..XoXoXoXoXoXoXoXoXoXoXoXoXoXoXoXoXoXoXm.",
"m.oXoXoXoXoXoXoXoXoXoXoXoXoXoXoXoXoXoXoXoXoXoXoXoXoXoXoXoXoXoXoXoXoXoXoXoXoXoXoXoXoXoXoXoXoXoXoXoXoXoXoXoXoXoXoXoXoXoXoXoXoXoXm.",
"  m.m.m.m.m.m.m.m.m.m.m.m.m.m.m.m.m.m.m.m.m.m.m.m.m.m.m.m.m.m.m.m.m.m.m.m.m.m.m.m.m.m.m.m.m.m.m.m.m.m.m.m.m.m.m.m.m.m.m.m.m.m.  "
};
